<?xml version="1.0" encoding="utf-8"?>
<!-- Generator: Adobe Illustrator 21.0.0, SVG Export Plug-In . SVG Version: 6.00 Build 0)  -->
<svg version="1.1" id="图层_1" xmlns="http://www.w3.org/2000/svg" xmlns:xlink="http://www.w3.org/1999/xlink" x="0px" y="0px"
	 viewBox="0 0 80 80" style="enable-background:new 0 0 80 80;" xml:space="preserve">
<style type="text/css">
	.st0{fill:url(#SVGID_1_);}
	.st1{fill:url(#SVGID_2_);}
	.st2{fill:url(#SVGID_3_);}
	.st3{fill:url(#SVGID_4_);}
</style>
<title>三佳-新LOGO-0531</title>
<g>
	
		<linearGradient id="SVGID_1_" gradientUnits="userSpaceOnUse" x1="30.2016" y1="4.3698" x2="59.9547" y2="59.9792" gradientTransform="matrix(1 0 0 -1 0 82.61)">
		<stop  offset="0" style="stop-color:#36A1FF"/>
		<stop  offset="0.53" style="stop-color:#3683FF"/>
		<stop  offset="1" style="stop-color:#00A1FF"/>
	</linearGradient>
	<path class="st0" d="M55.9,73.8c0,0-18.9-18.4-7.7-44.8c2.7-6.3,7.3-9.6,9.6-12.1c2.4-2.5,3.8-5.5,1.9-8.5
		C57.3,4.4,51.1,5.9,47.9,8c-2.8,1.9-5.2,4.3-7.1,7c-6.6,10-6.9,21.5-3.6,33.5C40.9,62.2,55.9,73.8,55.9,73.8z"/>
	
		<linearGradient id="SVGID_2_" gradientUnits="userSpaceOnUse" x1="43.6322" y1="-2.8189" x2="73.3852" y2="52.7978" gradientTransform="matrix(1 0 0 -1 0 82.61)">
		<stop  offset="0" style="stop-color:#36A1FF"/>
		<stop  offset="0.53" style="stop-color:#3683FF"/>
		<stop  offset="1" style="stop-color:#00A1FF"/>
	</linearGradient>
	<path class="st1" d="M54.5,52.9c1.9-7.9,5-13.2,11.1-16.8c1.5-0.9,3.8-2.2,6.3-2.4c2.2-0.2,4.9,0.3,5,3.4c0.1,2.3-1.8,3.8-3.6,4.4
		c-3,0.9-5.8,2.4-8.3,4.4c-13.3,11.5-9.2,28-9.2,28S52.4,61.9,54.5,52.9z"/>
	
		<linearGradient id="SVGID_3_" gradientUnits="userSpaceOnUse" x1="37.8881" y1="0.2533" x2="67.6411" y2="55.8701" gradientTransform="matrix(1 0 0 -1 0 82.61)">
		<stop  offset="0" style="stop-color:#36A1FF"/>
		<stop  offset="0.53" style="stop-color:#3683FF"/>
		<stop  offset="1" style="stop-color:#00A1FF"/>
	</linearGradient>
	<path class="st2" d="M47.6,49.2c-0.5-7.4,3-19.2,9.8-25.8c1.7-1.6,4.3-3.8,6.4-4.6c2.7-1,7.3-1.2,8.3,2.5c0.7,2.9-1.1,5-3.2,6.4
		s-6.8,4.8-9.9,8.9c-13.2,17.9-3,37.1-3,37.1S48.6,64.7,47.6,49.2z"/>
	
		<linearGradient id="SVGID_4_" gradientUnits="userSpaceOnUse" x1="76.7251" y1="19.0953" x2="28.137" y2="23.8295" gradientTransform="matrix(1 0 0 -1 0 82.61)">
		<stop  offset="1.000000e-02" style="stop-color:#FF3535"/>
		<stop  offset="0.53" style="stop-color:#ED2434"/>
		<stop  offset="1" style="stop-color:#FB2223"/>
	</linearGradient>
	<path class="st3" d="M13.3,54.5c5-4.4,13.3-7.3,19.2-2.6c1.2,0.9,2.1,2,2.8,3.3c1.2,2.5,1.5,5.3,1.1,8c-0.3,1.8-1.3,3.4-2.8,4.5
		c-1.7,1.1-3.8,1.6-5.8,1.5c-2.2-0.1-3.9-0.9-5.8-2c-3.3-1.9-4.6-2.7-6.1-2s-1.8,2.5-1.2,3.9c1.7,4,6.7,5.5,10.8,4.9
		c4.2-0.6,9.1-2.2,11.3-6.1c2-3.5,2-8.6,0.9-12.4c-0.3-1.1-0.8-2.2-1.3-3.2c-2.2-3.7-5.5-6.6-9.5-8.3c-2.1-1-4.5-1.6-6.8-1.8
		C14.7,42,7.9,43.4,4.7,48c-1.2,1.7-1.8,3.8-1.7,5.9c0.1,1.8,0.6,3.6,2.3,4.6c1.9,1.2,4-0.1,5.4-1.5C11.5,56.1,12.3,55.3,13.3,54.5z
		"/>
</g>
</svg>
